<svg width="138" height="130" viewBox="0 0 138 130" fill="none" xmlns="http://www.w3.org/2000/svg">
<mask id="mask0_44_3" style="mask-type:luminance" maskUnits="userSpaceOnUse" x="9" y="0" width="120" height="108">
<path d="M9 0H129V108H9V0Z" fill="white"/>
</mask>
<g mask="url(#mask0_44_3)">
<mask id="mask1_44_3" style="mask-type:luminance" maskUnits="userSpaceOnUse" x="-16" y="-25" width="169" height="175">
<path d="M152.846 62.0781L68.6825 149.047L-15.496 62.0781L68.6825 -24.8906L152.846 62.0781Z" fill="white"/>
</mask>
<g mask="url(#mask1_44_3)">
<mask id="mask2_44_3" style="mask-type:luminance" maskUnits="userSpaceOnUse" x="-16" y="-25" width="169" height="175">
<path d="M152.846 62.0781L68.6825 149.047L-15.496 62.0781L68.6825 -24.8906L152.846 62.0781Z" fill="white"/>
</mask>
<g mask="url(#mask2_44_3)">
<mask id="mask3_44_3" style="mask-type:luminance" maskUnits="userSpaceOnUse" x="-16" y="-25" width="169" height="175">
<path d="M152.846 62.0781L68.6825 149.047L-15.496 62.0781L68.6825 -24.8906L152.846 62.0781Z" fill="white"/>
</mask>
<g mask="url(#mask3_44_3)">
<path d="M26.6915 18.4218C29.4587 15.5625 32.4677 13.0156 35.7187 10.7656C38.9697 8.53122 42.4022 6.62497 46.0161 5.07809C49.63 3.53122 53.3498 2.37497 57.1754 1.57809C61.0161 0.796847 64.8871 0.406219 68.8034 0.406219C72.7046 0.406219 76.5756 0.796847 80.4163 1.57809C84.2419 2.37497 87.9617 3.53122 91.5756 5.07809C95.1895 6.62497 98.622 8.53122 101.873 10.7656C105.124 13.0156 108.133 15.5625 110.9 18.4218C113.667 21.2812 116.132 24.3906 118.294 27.75C120.472 31.1093 122.301 34.6406 123.798 38.375C125.295 42.1094 126.429 45.9531 127.185 49.9219C127.957 53.875 128.335 57.8906 128.335 61.9219C128.335 65.9687 127.957 69.9687 127.185 73.9219C126.429 77.8906 125.295 81.7344 123.798 85.4687C122.301 89.2031 120.472 92.75 118.294 96.1094C116.132 99.4687 113.667 102.562 110.9 105.422L110.522 105.812L109.781 105.047L110.159 104.656C112.866 101.859 115.285 98.7969 117.432 95.5C119.564 92.2031 121.364 88.7187 122.831 85.0469C124.297 81.3906 125.416 77.6094 126.157 73.7187C126.913 69.8281 127.276 65.8906 127.276 61.9219C127.276 57.9531 126.913 54.0312 126.157 50.125C125.416 46.2344 124.297 42.4687 122.831 38.7968C121.364 35.125 119.564 31.6406 117.432 28.3437C115.285 25.0468 112.866 22 110.159 19.1875C107.437 16.375 104.489 13.875 101.283 11.6718C98.0927 9.46872 94.7207 7.60934 91.1824 6.09372C87.629 4.56247 83.9697 3.42185 80.2046 2.64059C76.4395 1.87497 72.6441 1.48434 68.8034 1.48434C64.9627 1.48434 61.1522 1.87497 57.3871 2.64059C53.622 3.42185 49.9627 4.56247 46.4093 6.09372C42.871 7.60934 39.499 9.46872 36.3084 11.6718C33.1028 13.875 30.1542 16.375 27.4476 19.1875C24.7258 22 22.3064 25.0468 20.1593 28.3437C18.0272 31.6406 16.2278 35.125 14.7611 38.7968C13.2943 42.4687 12.1905 46.2344 11.4345 50.125C10.6784 54.0312 10.3155 57.9531 10.3155 61.9219C10.3155 65.8906 10.6784 69.8281 11.4345 73.7187C12.1905 77.6094 13.2943 81.3906 14.7611 85.0469C16.2278 88.7187 18.0272 92.2031 20.1593 95.5C22.3064 98.7969 24.7258 101.859 27.4476 104.656L27.8105 105.047L27.0695 105.812L26.6915 105.422C23.9395 102.562 21.4748 99.4531 19.2974 96.0937C17.1351 92.7344 15.3054 89.1875 13.8085 85.4687C12.3115 81.7344 11.1925 77.8906 10.4214 73.9219C9.6653 69.9687 9.28728 65.9687 9.28728 61.9219C9.28728 57.8906 9.6653 53.8906 10.4214 49.9219C11.1925 45.9687 12.3115 42.1094 13.8085 38.3906C15.3054 34.6562 17.1351 31.1093 19.2974 27.75C21.4748 24.3906 23.9395 21.2812 26.6915 18.4218Z" fill="#367E1C"/>
</g>
</g>
</g>
</g>
<path d="M56.3979 19.0189C56.0235 18.9764 55.7352 19.0189 55.5373 19.0189H55.3996C52.6371 19.2363 49.909 19.4537 47.082 20.4035L47.026 20.4224L46.9744 20.446C45.1198 21.2022 43.5062 21.9819 42.8349 21.8496C42.7532 21.807 42.6929 21.774 42.4434 21.6369C42.1077 21.4526 41.5053 21.1691 40.7781 21.1691C40.2618 21.1691 39.7454 21.2447 39.2075 21.4857C38.6697 21.722 38.0328 22.152 37.6413 22.9979C37.3702 23.5886 37.34 24.4109 37.396 24.8126C37.4003 24.7133 37.4261 24.7558 36.8624 25.1812C36.2428 25.6632 35.0164 26.3059 34.5474 28.1063V28.1394L34.5345 28.1725C34.1817 29.732 34.3667 30.7432 34.3495 30.9086C34.2419 31.2867 33.6567 31.6647 32.482 32.435L32.4045 32.487C30.4381 33.9236 28.747 35.7524 27.5981 38.2665C27.4002 38.6918 27 39.3628 27 40.5159C27 42.0186 27.7315 42.7322 28.1704 43.2426C28.605 43.7577 28.9923 44.2113 28.9062 44.0743L28.9536 44.1499L29.0052 44.2161C29.1386 44.3956 29.1816 45.0478 28.8761 46.0638C28.6308 46.853 27.9467 47.8265 27.4002 49.2631C26.9914 50.1893 27 51.0541 27 51.262V52.1504L28.2522 53.5209L28.3511 53.6059C30.068 55.0662 31.5353 56.4791 32.7961 58.048L32.7488 57.9819C33.7557 59.3571 34.7798 59.8627 35.6275 60.4156C36.7118 61.1292 38.1533 62.1972 40.1757 61.7482C41.0363 61.5639 41.6301 61.2048 42.0776 60.9921C42.5208 60.7747 42.7747 60.7275 42.7446 60.7275C42.6069 60.7275 42.8435 60.7417 43.1835 60.8504C43.4847 60.9449 43.9365 61.0677 44.4959 61.1055C46.656 61.4411 48.1577 60.2029 48.7946 59.9289C48.7343 59.943 49.0355 59.8769 49.3496 59.9619C49.6551 60.047 49.9693 60.2549 50.008 60.3069L50.1543 60.4581L50.3092 60.5763C50.1887 60.4818 50.2576 60.5148 50.4555 60.8362C50.6491 61.1433 50.9848 61.7341 51.6388 62.235C52.6156 63.0194 53.6397 63.0667 54.5907 62.9013C54.6294 62.9674 54.6466 62.958 54.6767 63.0242C54.8746 63.4542 54.9435 64.0165 54.9435 63.733C54.9435 63.8086 54.9134 63.974 54.8316 64.404C54.7456 64.7632 54.6294 65.4012 54.7671 66.1667C54.9779 68.5437 55.3738 70.5899 56.9358 72.7921C58.1277 74.4555 58.6527 75.7787 58.6742 77.8202C58.5967 78.6093 58.2525 79.545 57.7921 80.717C57.3144 81.9268 56.712 83.3964 56.712 85.2253C56.712 87.451 57.7964 89.0719 58.6527 90.3431C59.5046 91.6096 60.1802 92.6682 60.3179 93.273C60.4212 93.7172 60.4255 94.7805 60.7052 96.0234C61.1742 98.2822 62.0735 100.234 63.1191 102.053L63.132 102.082L63.1493 102.115C63.7775 103.145 63.9625 103.239 64.0012 103.287V104.137C64.0012 106.363 65.3093 107.975 67.009 108.721L67.0607 108.74L67.1166 108.764C68.5452 109.284 69.5392 108.816 70.3223 108.594C71.5056 108.461 73.0117 108.216 74.5478 107.663C76.1786 107.086 77.8697 106.269 79.0014 104.515L79.1176 104.331L79.195 104.128C79.7243 102.786 80.43 101.491 81.14 100.721C81.4283 100.399 81.8284 99.9976 82.2071 99.3266C82.4223 98.9391 82.3835 98.2775 82.4524 97.6868H82.8913L83.0849 97.6443C84.2682 97.3938 85.1116 96.4345 85.5118 95.5225C85.9034 94.6151 85.998 93.6889 85.7872 92.7107C85.5677 91.6191 85.0342 90.8866 84.6899 90.4235C84.4274 90.0738 84.3586 89.9367 84.2768 89.795C84.3113 89.7194 84.3113 89.6674 84.3844 89.5918C84.7071 89.1995 85.2063 88.7553 85.4645 88.5757C86.5875 87.9898 88.3862 87.2762 89.3802 85.1166L89.4189 85.0362L89.449 84.9512C90.0084 83.4153 90.0084 81.6574 89.449 80.1216L89.548 80.5091C89.1048 78.0564 88.3561 76.1945 88.1968 74.4791L88.1882 74.3704L88.1667 74.2712C87.9817 73.2221 88.7261 71.5303 89.7029 69.6023C90.2709 68.6949 91.2175 67.7782 92.2545 67.0221L92.2933 66.989L92.3406 66.9559C94.3845 65.283 97.1298 62.8068 99.2038 60.0045C100.249 58.6009 101.136 57.1218 101.635 55.4867C102.134 53.8469 102.194 51.9094 101.351 50.2224L100.181 47.9021L98.3432 49.6269C97.4827 50.4303 95.3441 51.2951 93.7391 51.4794C93.4852 51.4558 93.2141 51.4038 93.1711 51.4321C93.1237 51.3896 93.1022 51.3376 93.1151 51.3707L93.0076 51.1344L92.8484 50.9359C92.0609 49.9341 91.4714 47.628 89.4877 45.7614L89.4404 45.7188L89.3888 45.681C88.4335 44.8918 87.8956 44.5705 87.6202 44.1688L87.5342 44.0412L87.4352 43.942C87.1125 43.5876 86.7252 42.633 86.3337 41.3381L86.3207 41.3051C85.2579 37.9971 85.2493 34.9207 83.7304 30.885L83.7045 30.8094L83.6744 30.7432C83.5066 30.3699 83.2915 29.8076 82.8741 29.1649C82.4524 28.5175 81.5444 27.6196 80.331 27.6196H78.8164L78.6787 27.6338C77.8396 27.7708 76.8714 27.5062 75.6408 26.9816C74.4402 26.476 73.059 25.753 71.4368 25.3513C70.9118 25.1764 70.3825 25.0725 69.7758 25.1244C69.1519 25.1764 68.386 25.3749 67.7233 26.0979C67.0477 26.8351 66.9316 27.5676 66.824 28.0354C66.7078 27.9598 66.5099 27.7944 65.9161 27.3644C64.5305 26.3059 62.947 25.786 61.4711 25.252C60.6277 24.9496 60.1501 24.6708 59.5046 24.3683C59.5219 24.3258 59.5563 24.2502 59.5649 24.2077C59.8962 23.1444 59.7026 22.3174 59.4358 21.5802C59.1604 20.843 58.7602 20.1436 58.0072 19.5907L57.9039 19.5245L57.7921 19.4537C57.2456 19.1607 56.7809 19.052 56.3979 19.0189ZM99.2297 77.0593C98.6358 78.3494 97.8527 79.8522 96.8673 80.4902C96.0842 80.9296 95.0988 81.3549 94.7072 82.2197C94.1134 83.2972 94.7072 84.5826 94.5093 85.6553C94.5093 86.0853 94.3071 86.5106 94.1091 86.9407C93.9155 88.0134 94.1134 89.3082 94.5093 90.3809C94.7072 91.0284 95.0988 91.8837 95.6926 92.1058C96.0842 92.1058 96.6694 91.8837 97.061 91.4584C97.4611 91.0284 97.8527 90.173 98.042 89.5256C98.2443 88.8782 98.2443 88.2355 98.2443 87.5928C98.4422 85.6553 99.4276 83.7178 99.8192 81.785C100.021 80.4902 100.021 79.2048 99.8192 77.9241C99.6212 77.4846 99.4276 77.0593 99.2297 77.0593ZM81.5143 97.6868H81.5229C81.5229 97.6963 81.5143 97.6963 81.5143 97.7057C81.4627 97.7199 81.6434 97.6868 81.5143 97.6868Z" fill="#0C4213"/>
<path d="M58.0754 76.0596C36.4365 80.413 12.7815 80.5176 91.2732 46.1086C68.7361 52.3529 25.2269 67.7226 31.4866 79.2466C33.1164 81.1609 40.7159 83.2035 58.0754 76.0596Z" fill="#E3941D" stroke="white"/>
<path d="M107.441 35.8082L103.542 37.6971L98.069 35.5379C97.996 35.5091 97.9061 35.4995 97.8083 35.5098C97.7105 35.5202 97.6083 35.5502 97.5121 35.5969L95.2776 36.6794C94.915 36.8551 94.7577 37.1973 94.9622 37.3655L98.3961 40.1904L94.8871 41.8904L92.8223 41.3843C92.6779 41.3489 92.4915 41.3772 92.3199 41.4603L90.9557 42.1212C90.6006 42.2933 90.4404 42.6267 90.6303 42.7989L92.8149 44.5684L92.8496 47.3795C92.8669 47.6352 93.2279 47.7161 93.5831 47.5441L94.9473 46.8831C95.1192 46.7998 95.2566 46.6713 95.3182 46.536L96.2008 44.6018L99.7097 42.9018L99.7983 47.3471C99.8035 47.6119 100.17 47.7007 100.532 47.525L102.767 46.4425C102.963 46.3476 103.112 46.1948 103.158 46.0422L104.856 40.4085L108.755 38.5196C109.961 37.9353 111.735 36.326 111.373 35.5772C111.01 34.8284 108.647 35.2239 107.441 35.8082Z" fill="#E3941D"/>
<path d="M6.22 119.81C6.54667 120.037 6.71 120.257 6.71 120.47C6.71 120.597 6.63333 120.773 6.48 121L4.32 124.23V126.14C4.32 126.293 4.31333 126.41 4.3 126.49C4.29333 126.563 4.26333 126.65 4.21 126.75C4.15667 126.85 4.06667 126.92 3.94 126.96C3.81333 127 3.64333 127.02 3.43 127.02C3.21667 127.02 3.04667 127 2.92 126.96C2.79333 126.92 2.70333 126.85 2.65 126.75C2.59667 126.643 2.56333 126.553 2.55 126.48C2.54333 126.4 2.54 126.28 2.54 126.12V124.23L0.38 121C0.226667 120.773 0.15 120.597 0.15 120.47C0.15 120.257 0.296667 120.053 0.59 119.86C0.883333 119.66 1.09333 119.56 1.22 119.56C1.34667 119.56 1.44667 119.587 1.52 119.64C1.63333 119.713 1.75333 119.85 1.88 120.05L3.43 122.53L4.98 120.05C5.10667 119.85 5.21667 119.72 5.31 119.66C5.40333 119.593 5.51 119.56 5.63 119.56C5.75667 119.56 5.95333 119.643 6.22 119.81ZM5.9043 124.37C5.9043 123.57 6.1843 122.91 6.7443 122.39C7.3043 121.87 7.9443 121.61 8.6643 121.61C9.3843 121.61 10.021 121.87 10.5743 122.39C11.1276 122.903 11.4043 123.56 11.4043 124.36C11.4043 124.913 11.261 125.407 10.9743 125.84C10.6876 126.267 10.3376 126.583 9.9243 126.79C9.51763 126.99 9.0943 127.09 8.6543 127.09C8.2143 127.09 7.78763 126.983 7.3743 126.77C6.96096 126.55 6.61096 126.23 6.3243 125.81C6.0443 125.383 5.9043 124.903 5.9043 124.37ZM7.9943 125.09C8.20763 125.25 8.4243 125.33 8.6443 125.33C8.8643 125.33 9.0843 125.247 9.3043 125.08C9.5243 124.913 9.6343 124.667 9.6343 124.34C9.6343 124.013 9.53096 123.77 9.3243 123.61C9.11763 123.45 8.8943 123.37 8.6543 123.37C8.4143 123.37 8.19096 123.453 7.9843 123.62C7.77763 123.787 7.6743 124.033 7.6743 124.36C7.6743 124.68 7.78096 124.923 7.9943 125.09ZM14.3904 126.98C13.7171 126.98 13.1571 126.727 12.7104 126.22C12.2704 125.707 12.0504 125.083 12.0504 124.35V122.6C12.0504 122.44 12.0537 122.323 12.0604 122.25C12.0737 122.177 12.1037 122.09 12.1504 121.99C12.2437 121.81 12.5037 121.72 12.9304 121.72C13.3971 121.72 13.6704 121.847 13.7504 122.1C13.7904 122.207 13.8104 122.377 13.8104 122.61V124.36C13.8104 124.633 13.8871 124.847 14.0404 125C14.2004 125.153 14.4104 125.23 14.6704 125.23C14.9371 125.23 15.1504 125.15 15.3104 124.99C15.4771 124.83 15.5604 124.62 15.5604 124.36V122.59C15.5604 122.437 15.5637 122.323 15.5704 122.25C15.5837 122.17 15.6171 122.08 15.6704 121.98C15.7571 121.807 16.0137 121.72 16.4404 121.72C16.8604 121.72 17.1171 121.81 17.2104 121.99C17.2571 122.09 17.2837 122.18 17.2904 122.26C17.3037 122.333 17.3104 122.447 17.3104 122.6V126.14C17.3104 126.287 17.3037 126.4 17.2904 126.48C17.2837 126.553 17.2537 126.637 17.2004 126.73C17.1004 126.903 16.8437 126.99 16.4304 126.99C16.0237 126.99 15.7737 126.91 15.6804 126.75C15.6137 126.637 15.5804 126.5 15.5804 126.34C15.5537 126.387 15.4937 126.453 15.4004 126.54C15.3071 126.627 15.2171 126.7 15.1304 126.76C14.9037 126.907 14.6571 126.98 14.3904 126.98ZM21.6948 121.79C21.8215 121.83 21.9248 121.9 22.0048 122C22.0915 122.093 22.1348 122.247 22.1348 122.46C22.1348 122.673 22.0715 122.907 21.9448 123.16C21.8182 123.413 21.6348 123.54 21.3948 123.54C21.2748 123.54 21.1582 123.513 21.0448 123.46C20.9382 123.407 20.7948 123.38 20.6148 123.38C20.4348 123.38 20.2648 123.443 20.1048 123.57C19.9515 123.697 19.8748 123.85 19.8748 124.03V126.13C19.8748 126.283 19.8682 126.4 19.8548 126.48C19.8482 126.553 19.8182 126.64 19.7648 126.74C19.6648 126.913 19.4048 127 18.9848 127C18.6648 127 18.4348 126.943 18.2948 126.83C18.1882 126.737 18.1282 126.593 18.1148 126.4C18.1148 126.333 18.1148 126.237 18.1148 126.11V122.6C18.1148 122.447 18.1182 122.333 18.1248 122.26C18.1382 122.18 18.1682 122.093 18.2148 122C18.3082 121.82 18.5682 121.73 18.9948 121.73C19.3948 121.73 19.6448 121.807 19.7448 121.96C19.8182 122.067 19.8548 122.177 19.8548 122.29C19.8882 122.243 19.9348 122.187 19.9948 122.12C20.0615 122.053 20.1982 121.963 20.4048 121.85C20.6115 121.737 20.7915 121.68 20.9448 121.68C21.1048 121.68 21.2382 121.69 21.3448 121.71C21.4515 121.723 21.5682 121.75 21.6948 121.79ZM28.2745 123.5L27.6245 123.46V124.84C27.6245 125.02 27.6511 125.15 27.7045 125.23C27.7645 125.31 27.8711 125.35 28.0245 125.35C28.1845 125.35 28.3045 125.357 28.3845 125.37C28.4711 125.377 28.5611 125.407 28.6545 125.46C28.8078 125.547 28.8845 125.77 28.8845 126.13C28.8845 126.55 28.7911 126.807 28.6045 126.9C28.5045 126.947 28.4145 126.977 28.3345 126.99C28.2611 126.997 28.1511 127 28.0045 127C27.3111 127 26.7845 126.843 26.4245 126.53C26.0645 126.217 25.8845 125.687 25.8845 124.94V123.46C25.7578 123.48 25.6211 123.49 25.4745 123.49C25.3278 123.49 25.2045 123.433 25.1045 123.32C25.0111 123.207 24.9645 123.013 24.9645 122.74C24.9645 122.467 24.9811 122.27 25.0145 122.15C25.0478 122.023 25.0945 121.933 25.1545 121.88C25.2611 121.793 25.3945 121.75 25.5545 121.75L25.8845 121.79V120.76C25.8845 120.607 25.8878 120.493 25.8945 120.42C25.9078 120.347 25.9411 120.267 25.9945 120.18C26.0811 120.013 26.3378 119.93 26.7645 119.93C27.2178 119.93 27.4878 120.053 27.5745 120.3C27.6078 120.407 27.6245 120.577 27.6245 120.81V121.79C27.9178 121.763 28.1378 121.75 28.2845 121.75C28.4378 121.75 28.5511 121.757 28.6245 121.77C28.7045 121.777 28.7945 121.807 28.8945 121.86C29.0678 121.947 29.1545 122.203 29.1545 122.63C29.1545 123.05 29.0645 123.307 28.8845 123.4C28.7845 123.447 28.6945 123.477 28.6145 123.49C28.5411 123.497 28.4278 123.5 28.2745 123.5ZM29.5566 124.37C29.5566 123.57 29.8366 122.91 30.3966 122.39C30.9566 121.87 31.5966 121.61 32.3166 121.61C33.0366 121.61 33.6733 121.87 34.2266 122.39C34.78 122.903 35.0566 123.56 35.0566 124.36C35.0566 124.913 34.9133 125.407 34.6266 125.84C34.34 126.267 33.99 126.583 33.5766 126.79C33.17 126.99 32.7466 127.09 32.3066 127.09C31.8666 127.09 31.44 126.983 31.0266 126.77C30.6133 126.55 30.2633 126.23 29.9766 125.81C29.6966 125.383 29.5566 124.903 29.5566 124.37ZM31.6466 125.09C31.86 125.25 32.0766 125.33 32.2966 125.33C32.5166 125.33 32.7366 125.247 32.9566 125.08C33.1766 124.913 33.2866 124.667 33.2866 124.34C33.2866 124.013 33.1833 123.77 32.9766 123.61C32.77 123.45 32.5466 123.37 32.3066 123.37C32.0666 123.37 31.8433 123.453 31.6366 123.62C31.43 123.787 31.3266 124.033 31.3266 124.36C31.3266 124.68 31.4333 124.923 31.6466 125.09ZM38.0427 126.98C37.3694 126.98 36.8094 126.727 36.3627 126.22C35.9227 125.707 35.7027 125.083 35.7027 124.35V122.6C35.7027 122.44 35.7061 122.323 35.7127 122.25C35.7261 122.177 35.7561 122.09 35.8027 121.99C35.8961 121.81 36.1561 121.72 36.5827 121.72C37.0494 121.72 37.3227 121.847 37.4027 122.1C37.4427 122.207 37.4627 122.377 37.4627 122.61V124.36C37.4627 124.633 37.5394 124.847 37.6927 125C37.8527 125.153 38.0627 125.23 38.3227 125.23C38.5894 125.23 38.8027 125.15 38.9627 124.99C39.1294 124.83 39.2127 124.62 39.2127 124.36V122.59C39.2127 122.437 39.2161 122.323 39.2227 122.25C39.2361 122.17 39.2694 122.08 39.3227 121.98C39.4094 121.807 39.6661 121.72 40.0927 121.72C40.5127 121.72 40.7694 121.81 40.8627 121.99C40.9094 122.09 40.9361 122.18 40.9427 122.26C40.9561 122.333 40.9627 122.447 40.9627 122.6V126.14C40.9627 126.287 40.9561 126.4 40.9427 126.48C40.9361 126.553 40.9061 126.637 40.8527 126.73C40.7527 126.903 40.4961 126.99 40.0827 126.99C39.6761 126.99 39.4261 126.91 39.3327 126.75C39.2661 126.637 39.2327 126.5 39.2327 126.34C39.2061 126.387 39.1461 126.453 39.0527 126.54C38.9594 126.627 38.8694 126.7 38.7827 126.76C38.5561 126.907 38.3094 126.98 38.0427 126.98ZM45.3472 121.79C45.4739 121.83 45.5772 121.9 45.6572 122C45.7439 122.093 45.7872 122.247 45.7872 122.46C45.7872 122.673 45.7239 122.907 45.5972 123.16C45.4705 123.413 45.2872 123.54 45.0472 123.54C44.9272 123.54 44.8105 123.513 44.6972 123.46C44.5905 123.407 44.4472 123.38 44.2672 123.38C44.0872 123.38 43.9172 123.443 43.7572 123.57C43.6039 123.697 43.5272 123.85 43.5272 124.03V126.13C43.5272 126.283 43.5205 126.4 43.5072 126.48C43.5005 126.553 43.4705 126.64 43.4172 126.74C43.3172 126.913 43.0572 127 42.6372 127C42.3172 127 42.0872 126.943 41.9472 126.83C41.8405 126.737 41.7805 126.593 41.7672 126.4C41.7672 126.333 41.7672 126.237 41.7672 126.11V122.6C41.7672 122.447 41.7705 122.333 41.7772 122.26C41.7905 122.18 41.8205 122.093 41.8672 122C41.9605 121.82 42.2205 121.73 42.6472 121.73C43.0472 121.73 43.2972 121.807 43.3972 121.96C43.4705 122.067 43.5072 122.177 43.5072 122.29C43.5405 122.243 43.5872 122.187 43.6472 122.12C43.7139 122.053 43.8505 121.963 44.0572 121.85C44.2639 121.737 44.4439 121.68 44.5972 121.68C44.7572 121.68 44.8905 121.69 44.9972 121.71C45.1039 121.723 45.2205 121.75 45.3472 121.79ZM46.1822 126.53C46.0555 126.45 45.9922 126.323 45.9922 126.15C45.9922 125.977 46.1189 125.713 46.3722 125.36C46.4455 125.247 46.5622 125.19 46.7222 125.19C46.8889 125.19 47.1122 125.273 47.3922 125.44C47.6722 125.6 47.9255 125.68 48.1522 125.68C48.5589 125.68 48.7622 125.6 48.7622 125.44C48.7622 125.313 48.5389 125.22 48.0922 125.16C47.6722 125.1 47.2555 124.943 46.8422 124.69C46.6489 124.57 46.4889 124.383 46.3622 124.13C46.2355 123.87 46.1722 123.563 46.1722 123.21C46.1722 122.157 46.8955 121.63 48.3422 121.63C48.8155 121.63 49.3022 121.743 49.8022 121.97C50.0355 122.077 50.1522 122.21 50.1522 122.37C50.1522 122.53 50.0789 122.727 49.9322 122.96C49.7855 123.193 49.6355 123.31 49.4822 123.31C49.4022 123.31 49.2522 123.26 49.0322 123.16C48.8189 123.06 48.5855 123.01 48.3322 123.01C47.9389 123.01 47.7422 123.083 47.7422 123.23C47.7422 123.43 47.9689 123.56 48.4222 123.62C48.8622 123.667 49.2889 123.793 49.7022 124C49.8955 124.093 50.0555 124.257 50.1822 124.49C50.3155 124.717 50.3822 125.003 50.3822 125.35C50.3822 125.697 50.3155 125.993 50.1822 126.24C50.0555 126.48 49.8755 126.66 49.6422 126.78C49.2155 126.987 48.6789 127.09 48.0322 127.09C47.3922 127.09 46.7755 126.903 46.1822 126.53ZM59.6241 127.01C59.0441 127.01 58.4707 126.86 57.9041 126.56C57.2707 126.907 56.6307 127.08 55.9841 127.08C54.2707 127.08 53.4141 126.367 53.4141 124.94C53.4141 124.2 53.7974 123.513 54.5641 122.88C54.2974 122.287 54.1641 121.75 54.1641 121.27C54.1641 120.603 54.3641 120.11 54.7641 119.79C55.1641 119.47 55.7007 119.31 56.3741 119.31C57.0474 119.31 57.5574 119.47 57.9041 119.79C58.2507 120.11 58.4241 120.547 58.4241 121.1C58.4241 121.567 58.2341 121.987 57.8541 122.36C57.5741 122.64 57.1807 122.95 56.6741 123.29C57.0674 123.81 57.4941 124.25 57.9541 124.61C58.1407 124.323 58.2707 124.03 58.3441 123.73C58.4107 123.437 58.7107 123.29 59.2441 123.29C59.4707 123.29 59.6407 123.32 59.7541 123.38C59.8741 123.44 59.9407 123.503 59.9541 123.57C59.9741 123.63 59.9807 123.71 59.9741 123.81C59.9474 124.317 59.7407 124.82 59.3541 125.32C59.4541 125.34 59.5474 125.35 59.6341 125.35C60.1541 125.35 60.4141 125.613 60.4141 126.14C60.4141 126.507 60.3541 126.743 60.2341 126.85C60.1141 126.957 59.9107 127.01 59.6241 127.01ZM55.7441 121.15C55.7441 121.39 55.8007 121.66 55.9141 121.96C56.2274 121.76 56.4607 121.593 56.6141 121.46C56.7741 121.327 56.8541 121.2 56.8541 121.08C56.8541 120.787 56.6907 120.64 56.3641 120.64C55.9507 120.64 55.7441 120.81 55.7441 121.15ZM56.0541 125.6C56.2207 125.6 56.3707 125.587 56.5041 125.56C56.1174 125.213 55.7507 124.8 55.4041 124.32C55.2507 124.513 55.1741 124.713 55.1741 124.92C55.1741 125.373 55.4674 125.6 56.0541 125.6ZM66.6338 123.5L65.9838 123.46V124.84C65.9838 125.02 66.0105 125.15 66.0638 125.23C66.1238 125.31 66.2305 125.35 66.3838 125.35C66.5438 125.35 66.6638 125.357 66.7438 125.37C66.8305 125.377 66.9205 125.407 67.0138 125.46C67.1672 125.547 67.2438 125.77 67.2438 126.13C67.2438 126.55 67.1505 126.807 66.9638 126.9C66.8638 126.947 66.7738 126.977 66.6938 126.99C66.6205 126.997 66.5105 127 66.3638 127C65.6705 127 65.1438 126.843 64.7838 126.53C64.4238 126.217 64.2438 125.687 64.2438 124.94V123.46C64.1172 123.48 63.9805 123.49 63.8338 123.49C63.6872 123.49 63.5638 123.433 63.4638 123.32C63.3705 123.207 63.3238 123.013 63.3238 122.74C63.3238 122.467 63.3405 122.27 63.3738 122.15C63.4072 122.023 63.4538 121.933 63.5138 121.88C63.6205 121.793 63.7538 121.75 63.9138 121.75L64.2438 121.79V120.76C64.2438 120.607 64.2472 120.493 64.2538 120.42C64.2672 120.347 64.3005 120.267 64.3538 120.18C64.4405 120.013 64.6972 119.93 65.1238 119.93C65.5772 119.93 65.8472 120.053 65.9338 120.3C65.9672 120.407 65.9838 120.577 65.9838 120.81V121.79C66.2772 121.763 66.4972 121.75 66.6438 121.75C66.7972 121.75 66.9105 121.757 66.9838 121.77C67.0638 121.777 67.1538 121.807 67.2538 121.86C67.4272 121.947 67.5138 122.203 67.5138 122.63C67.5138 123.05 67.4238 123.307 67.2438 123.4C67.1438 123.447 67.0538 123.477 66.9738 123.49C66.9005 123.497 66.7872 123.5 66.6338 123.5ZM71.646 121.79C71.7727 121.83 71.876 121.9 71.956 122C72.0427 122.093 72.086 122.247 72.086 122.46C72.086 122.673 72.0227 122.907 71.896 123.16C71.7693 123.413 71.586 123.54 71.346 123.54C71.226 123.54 71.1093 123.513 70.996 123.46C70.8893 123.407 70.746 123.38 70.566 123.38C70.386 123.38 70.216 123.443 70.056 123.57C69.9027 123.697 69.826 123.85 69.826 124.03V126.13C69.826 126.283 69.8193 126.4 69.806 126.48C69.7993 126.553 69.7693 126.64 69.716 126.74C69.616 126.913 69.356 127 68.936 127C68.616 127 68.386 126.943 68.246 126.83C68.1393 126.737 68.0793 126.593 68.066 126.4C68.066 126.333 68.066 126.237 68.066 126.11V122.6C68.066 122.447 68.0693 122.333 68.076 122.26C68.0893 122.18 68.1193 122.093 68.166 122C68.2593 121.82 68.5193 121.73 68.946 121.73C69.346 121.73 69.596 121.807 69.696 121.96C69.7693 122.067 69.806 122.177 69.806 122.29C69.8393 122.243 69.886 122.187 69.946 122.12C70.0127 122.053 70.1493 121.963 70.356 121.85C70.5627 121.737 70.7427 121.68 70.896 121.68C71.056 121.68 71.1893 121.69 71.296 121.71C71.4027 121.723 71.5193 121.75 71.646 121.79ZM75.7536 122.29C75.7936 121.917 76.0569 121.73 76.5436 121.73C76.8036 121.73 76.9969 121.75 77.1236 121.79C77.2503 121.83 77.3369 121.9 77.3836 122C77.4369 122.1 77.4669 122.19 77.4736 122.27C77.4869 122.343 77.4936 122.457 77.4936 122.61V126.11C77.4936 126.263 77.4869 126.38 77.4736 126.46C77.4669 126.533 77.4403 126.62 77.3936 126.72C77.3003 126.893 77.0703 126.98 76.7036 126.98C76.3436 126.98 76.1003 126.937 75.9736 126.85C75.8536 126.757 75.7836 126.623 75.7636 126.45C75.5169 126.803 75.1036 126.98 74.5236 126.98C73.9503 126.98 73.4169 126.717 72.9236 126.19C72.4303 125.663 72.1836 125.053 72.1836 124.36C72.1836 123.66 72.4303 123.05 72.9236 122.53C73.4236 122.003 73.9703 121.74 74.5636 121.74C74.7903 121.74 74.9969 121.78 75.1836 121.86C75.3703 121.94 75.5003 122.017 75.5736 122.09C75.6469 122.157 75.7069 122.223 75.7536 122.29ZM73.9336 124.37C73.9336 124.59 74.0203 124.79 74.1936 124.97C74.3669 125.143 74.5769 125.23 74.8236 125.23C75.0703 125.23 75.2736 125.14 75.4336 124.96C75.6003 124.78 75.6836 124.583 75.6836 124.37C75.6836 124.15 75.6036 123.947 75.4436 123.76C75.2903 123.573 75.0803 123.48 74.8136 123.48C74.5536 123.48 74.3403 123.573 74.1736 123.76C74.0136 123.947 73.9336 124.15 73.9336 124.37ZM83.4541 121.85C83.8008 122.057 83.9741 122.277 83.9741 122.51C83.9741 122.643 83.9075 122.827 83.7741 123.06L81.7041 126.61C81.6375 126.723 81.5308 126.827 81.3841 126.92C81.2375 127.007 81.0908 127.05 80.9441 127.05C80.8041 127.05 80.6675 127.017 80.5341 126.95C80.4075 126.877 80.3175 126.803 80.2641 126.73L80.1741 126.62L78.0941 123.06C77.9608 122.84 77.8941 122.66 77.8941 122.52C77.8941 122.28 78.0675 122.057 78.4141 121.85C78.6675 121.703 78.8675 121.63 79.0141 121.63C79.1608 121.63 79.2741 121.677 79.3541 121.77C79.4408 121.857 79.5308 121.99 79.6241 122.17L80.9341 124.69L82.2441 122.17C82.3175 122.043 82.3708 121.953 82.4041 121.9C82.4441 121.84 82.5041 121.783 82.5841 121.73C82.6641 121.67 82.7708 121.64 82.9041 121.64C83.0375 121.64 83.2208 121.71 83.4541 121.85ZM89.2984 123.74C89.2984 124.147 89.195 124.45 88.9884 124.65C88.7884 124.843 88.565 124.94 88.3184 124.94H85.9484C85.9484 125.127 86.0584 125.283 86.2784 125.41C86.4984 125.537 86.7184 125.6 86.9384 125.6C87.325 125.6 87.6284 125.56 87.8484 125.48L87.9584 125.44C88.1184 125.367 88.2517 125.33 88.3584 125.33C88.5717 125.33 88.755 125.48 88.9084 125.78C88.995 125.96 89.0384 126.113 89.0384 126.24C89.0384 126.833 88.3284 127.13 86.9084 127.13C86.415 127.13 85.975 127.047 85.5884 126.88C85.2084 126.707 84.9117 126.48 84.6984 126.2C84.2784 125.66 84.0684 125.057 84.0684 124.39C84.0684 123.55 84.3384 122.88 84.8784 122.38C85.425 121.873 86.105 121.62 86.9184 121.62C87.845 121.62 88.525 121.947 88.9584 122.6C89.185 122.947 89.2984 123.327 89.2984 123.74ZM87.1884 124.03C87.4417 124.03 87.5684 123.923 87.5684 123.71C87.5684 123.557 87.5084 123.433 87.3884 123.34C87.275 123.247 87.1084 123.2 86.8884 123.2C86.675 123.2 86.4617 123.29 86.2484 123.47C86.035 123.643 85.9284 123.83 85.9284 124.03H87.1884ZM89.9508 120.13C89.9508 119.977 89.9541 119.863 89.9608 119.79C89.9741 119.71 90.0041 119.62 90.0508 119.52C90.1441 119.34 90.4041 119.25 90.8308 119.25C91.2374 119.25 91.4908 119.34 91.5908 119.52C91.6441 119.62 91.6741 119.71 91.6808 119.79C91.6941 119.87 91.7008 119.987 91.7008 120.14V124.77C91.7008 125.01 91.7208 125.163 91.7608 125.23C91.8008 125.29 91.8874 125.32 92.0208 125.32C92.1608 125.32 92.2541 125.327 92.3008 125.34C92.3474 125.347 92.4041 125.373 92.4708 125.42C92.6041 125.507 92.6708 125.743 92.6708 126.13C92.6708 126.55 92.6041 126.807 92.4708 126.9C92.2974 127.02 91.8841 127.04 91.2308 126.96C90.7174 126.893 90.3841 126.723 90.2308 126.45C90.0441 126.123 89.9508 125.603 89.9508 124.89V120.13ZM95.7516 128.43V122.59C95.7516 122.437 95.7549 122.323 95.7616 122.25C95.7749 122.177 95.8049 122.093 95.8516 122C95.9449 121.82 96.1682 121.73 96.5216 121.73C96.8749 121.73 97.1116 121.777 97.2316 121.87C97.3582 121.957 97.4316 122.087 97.4516 122.26C97.7049 121.913 98.1016 121.74 98.6416 121.74C99.1882 121.74 99.7049 121.997 100.192 122.51C100.678 123.023 100.922 123.62 100.922 124.3C100.922 124.98 100.678 125.577 100.192 126.09C99.7116 126.603 99.1982 126.86 98.6516 126.86C98.1049 126.86 97.7082 126.707 97.4616 126.4V128.42C97.4616 128.573 97.4549 128.687 97.4416 128.76C97.4349 128.833 97.4049 128.917 97.3516 129.01C97.3049 129.11 97.2216 129.18 97.1016 129.22C96.9816 129.26 96.8182 129.28 96.6116 129.28C96.4049 129.28 96.2382 129.26 96.1116 129.22C95.9916 129.18 95.9049 129.113 95.8516 129.02C95.8049 128.927 95.7749 128.843 95.7616 128.77C95.7549 128.697 95.7516 128.583 95.7516 128.43ZM97.7316 123.72C97.5782 123.9 97.5016 124.097 97.5016 124.31C97.5016 124.523 97.5782 124.72 97.7316 124.9C97.8916 125.073 98.0916 125.16 98.3316 125.16C98.5782 125.16 98.7849 125.073 98.9516 124.9C99.1249 124.727 99.2116 124.53 99.2116 124.31C99.2116 124.09 99.1316 123.893 98.9716 123.72C98.8116 123.54 98.6016 123.45 98.3416 123.45C98.0882 123.45 97.8849 123.54 97.7316 123.72ZM104.992 122.29C105.032 121.917 105.295 121.73 105.782 121.73C106.042 121.73 106.235 121.75 106.362 121.79C106.489 121.83 106.575 121.9 106.622 122C106.675 122.1 106.705 122.19 106.712 122.27C106.725 122.343 106.732 122.457 106.732 122.61V126.11C106.732 126.263 106.725 126.38 106.712 126.46C106.705 126.533 106.679 126.62 106.632 126.72C106.539 126.893 106.309 126.98 105.942 126.98C105.582 126.98 105.339 126.937 105.212 126.85C105.092 126.757 105.022 126.623 105.002 126.45C104.755 126.803 104.342 126.98 103.762 126.98C103.189 126.98 102.655 126.717 102.162 126.19C101.669 125.663 101.422 125.053 101.422 124.36C101.422 123.66 101.669 123.05 102.162 122.53C102.662 122.003 103.209 121.74 103.802 121.74C104.029 121.74 104.235 121.78 104.422 121.86C104.609 121.94 104.739 122.017 104.812 122.09C104.885 122.157 104.945 122.223 104.992 122.29ZM103.172 124.37C103.172 124.59 103.259 124.79 103.432 124.97C103.605 125.143 103.815 125.23 104.062 125.23C104.309 125.23 104.512 125.14 104.672 124.96C104.839 124.78 104.922 124.583 104.922 124.37C104.922 124.15 104.842 123.947 104.682 123.76C104.529 123.573 104.319 123.48 104.052 123.48C103.792 123.48 103.579 123.573 103.412 123.76C103.252 123.947 103.172 124.15 103.172 124.37ZM111.109 121.79C111.236 121.83 111.339 121.9 111.419 122C111.506 122.093 111.549 122.247 111.549 122.46C111.549 122.673 111.486 122.907 111.359 123.16C111.232 123.413 111.049 123.54 110.809 123.54C110.689 123.54 110.572 123.513 110.459 123.46C110.352 123.407 110.209 123.38 110.029 123.38C109.849 123.38 109.679 123.443 109.519 123.57C109.366 123.697 109.289 123.85 109.289 124.03V126.13C109.289 126.283 109.282 126.4 109.269 126.48C109.262 126.553 109.232 126.64 109.179 126.74C109.079 126.913 108.819 127 108.399 127C108.079 127 107.849 126.943 107.709 126.83C107.602 126.737 107.542 126.593 107.529 126.4C107.529 126.333 107.529 126.237 107.529 126.11V122.6C107.529 122.447 107.532 122.333 107.539 122.26C107.552 122.18 107.582 122.093 107.629 122C107.722 121.82 107.982 121.73 108.409 121.73C108.809 121.73 109.059 121.807 109.159 121.96C109.232 122.067 109.269 122.177 109.269 122.29C109.302 122.243 109.349 122.187 109.409 122.12C109.476 122.053 109.612 121.963 109.819 121.85C110.026 121.737 110.206 121.68 110.359 121.68C110.519 121.68 110.652 121.69 110.759 121.71C110.866 121.723 110.982 121.75 111.109 121.79ZM115.159 123.5L114.509 123.46V124.84C114.509 125.02 114.536 125.15 114.589 125.23C114.649 125.31 114.756 125.35 114.909 125.35C115.069 125.35 115.189 125.357 115.269 125.37C115.356 125.377 115.446 125.407 115.539 125.46C115.693 125.547 115.769 125.77 115.769 126.13C115.769 126.55 115.676 126.807 115.489 126.9C115.389 126.947 115.299 126.977 115.219 126.99C115.146 126.997 115.036 127 114.889 127C114.196 127 113.669 126.843 113.309 126.53C112.949 126.217 112.769 125.687 112.769 124.94V123.46C112.643 123.48 112.506 123.49 112.359 123.49C112.213 123.49 112.089 123.433 111.989 123.32C111.896 123.207 111.849 123.013 111.849 122.74C111.849 122.467 111.866 122.27 111.899 122.15C111.933 122.023 111.979 121.933 112.039 121.88C112.146 121.793 112.279 121.75 112.439 121.75L112.769 121.79V120.76C112.769 120.607 112.773 120.493 112.779 120.42C112.793 120.347 112.826 120.267 112.879 120.18C112.966 120.013 113.223 119.93 113.649 119.93C114.103 119.93 114.373 120.053 114.459 120.3C114.493 120.407 114.509 120.577 114.509 120.81V121.79C114.803 121.763 115.023 121.75 115.169 121.75C115.323 121.75 115.436 121.757 115.509 121.77C115.589 121.777 115.679 121.807 115.779 121.86C115.953 121.947 116.039 122.203 116.039 122.63C116.039 123.05 115.949 123.307 115.769 123.4C115.669 123.447 115.579 123.477 115.499 123.49C115.426 123.497 115.313 123.5 115.159 123.5ZM119.521 121.73C120.188 121.73 120.741 121.987 121.181 122.5C121.628 123.007 121.851 123.627 121.851 124.36V126.12C121.851 126.273 121.845 126.39 121.831 126.47C121.825 126.543 121.798 126.627 121.751 126.72C121.658 126.9 121.398 126.99 120.971 126.99C120.498 126.99 120.225 126.867 120.151 126.62C120.111 126.507 120.091 126.337 120.091 126.11V124.35C120.091 124.077 120.011 123.863 119.851 123.71C119.698 123.557 119.488 123.48 119.221 123.48C118.961 123.48 118.748 123.56 118.581 123.72C118.421 123.88 118.341 124.09 118.341 124.35V126.12C118.341 126.273 118.335 126.39 118.321 126.47C118.315 126.543 118.285 126.627 118.231 126.72C118.145 126.9 117.888 126.99 117.461 126.99C117.041 126.99 116.785 126.9 116.691 126.72C116.645 126.62 116.615 126.533 116.601 126.46C116.595 126.38 116.591 126.263 116.591 126.11V122.57C116.591 122.423 116.595 122.313 116.601 122.24C116.615 122.16 116.648 122.073 116.701 121.98C116.795 121.813 117.051 121.73 117.471 121.73C117.878 121.73 118.128 121.807 118.221 121.96C118.288 122.073 118.321 122.21 118.321 122.37C118.348 122.323 118.408 122.257 118.501 122.17C118.595 122.083 118.685 122.013 118.771 121.96C118.998 121.807 119.248 121.73 119.521 121.73ZM127.736 123.74C127.736 124.147 127.633 124.45 127.426 124.65C127.226 124.843 127.003 124.94 126.756 124.94H124.386C124.386 125.127 124.496 125.283 124.716 125.41C124.936 125.537 125.156 125.6 125.376 125.6C125.763 125.6 126.066 125.56 126.286 125.48L126.396 125.44C126.556 125.367 126.689 125.33 126.796 125.33C127.009 125.33 127.193 125.48 127.346 125.78C127.433 125.96 127.476 126.113 127.476 126.24C127.476 126.833 126.766 127.13 125.346 127.13C124.853 127.13 124.413 127.047 124.026 126.88C123.646 126.707 123.349 126.48 123.136 126.2C122.716 125.66 122.506 125.057 122.506 124.39C122.506 123.55 122.776 122.88 123.316 122.38C123.863 121.873 124.543 121.62 125.356 121.62C126.283 121.62 126.963 121.947 127.396 122.6C127.623 122.947 127.736 123.327 127.736 123.74ZM125.626 124.03C125.879 124.03 126.006 123.923 126.006 123.71C126.006 123.557 125.946 123.433 125.826 123.34C125.713 123.247 125.546 123.2 125.326 123.2C125.113 123.2 124.899 123.29 124.686 123.47C124.473 123.643 124.366 123.83 124.366 124.03H125.626ZM131.968 121.79C132.095 121.83 132.198 121.9 132.278 122C132.365 122.093 132.408 122.247 132.408 122.46C132.408 122.673 132.345 122.907 132.218 123.16C132.092 123.413 131.908 123.54 131.668 123.54C131.548 123.54 131.432 123.513 131.318 123.46C131.212 123.407 131.068 123.38 130.888 123.38C130.708 123.38 130.538 123.443 130.378 123.57C130.225 123.697 130.148 123.85 130.148 124.03V126.13C130.148 126.283 130.142 126.4 130.128 126.48C130.122 126.553 130.092 126.64 130.038 126.74C129.938 126.913 129.678 127 129.258 127C128.938 127 128.708 126.943 128.568 126.83C128.462 126.737 128.402 126.593 128.388 126.4C128.388 126.333 128.388 126.237 128.388 126.11V122.6C128.388 122.447 128.392 122.333 128.398 122.26C128.412 122.18 128.442 122.093 128.488 122C128.582 121.82 128.842 121.73 129.268 121.73C129.668 121.73 129.918 121.807 130.018 121.96C130.092 122.067 130.128 122.177 130.128 122.29C130.162 122.243 130.208 122.187 130.268 122.12C130.335 122.053 130.472 121.963 130.678 121.85C130.885 121.737 131.065 121.68 131.218 121.68C131.378 121.68 131.512 121.69 131.618 121.71C131.725 121.723 131.842 121.75 131.968 121.79ZM132.803 126.53C132.677 126.45 132.613 126.323 132.613 126.15C132.613 125.977 132.74 125.713 132.993 125.36C133.067 125.247 133.183 125.19 133.343 125.19C133.51 125.19 133.733 125.273 134.013 125.44C134.293 125.6 134.547 125.68 134.773 125.68C135.18 125.68 135.383 125.6 135.383 125.44C135.383 125.313 135.16 125.22 134.713 125.16C134.293 125.1 133.877 124.943 133.463 124.69C133.27 124.57 133.11 124.383 132.983 124.13C132.857 123.87 132.793 123.563 132.793 123.21C132.793 122.157 133.517 121.63 134.963 121.63C135.437 121.63 135.923 121.743 136.423 121.97C136.657 122.077 136.773 122.21 136.773 122.37C136.773 122.53 136.7 122.727 136.553 122.96C136.407 123.193 136.257 123.31 136.103 123.31C136.023 123.31 135.873 123.26 135.653 123.16C135.44 123.06 135.207 123.01 134.953 123.01C134.56 123.01 134.363 123.083 134.363 123.23C134.363 123.43 134.59 123.56 135.043 123.62C135.483 123.667 135.91 123.793 136.323 124C136.517 124.093 136.677 124.257 136.803 124.49C136.937 124.717 137.003 125.003 137.003 125.35C137.003 125.697 136.937 125.993 136.803 126.24C136.677 126.48 136.497 126.66 136.263 126.78C135.837 126.987 135.3 127.09 134.653 127.09C134.013 127.09 133.397 126.903 132.803 126.53Z" fill="#E3941D"/>
<path d="M19.336 111.24C19.184 110.96 18.964 110.748 18.676 110.604C18.396 110.452 18.064 110.376 17.68 110.376C17.016 110.376 16.484 110.596 16.084 111.036C15.684 111.468 15.484 112.048 15.484 112.776C15.484 113.552 15.692 114.16 16.108 114.6C16.532 115.032 17.112 115.248 17.848 115.248C18.352 115.248 18.776 115.12 19.12 114.864C19.472 114.608 19.728 114.24 19.888 113.76H17.284V112.248H21.748V114.156C21.596 114.668 21.336 115.144 20.968 115.584C20.608 116.024 20.148 116.38 19.588 116.652C19.028 116.924 18.396 117.06 17.692 117.06C16.86 117.06 16.116 116.88 15.46 116.52C14.812 116.152 14.304 115.644 13.936 114.996C13.576 114.348 13.396 113.608 13.396 112.776C13.396 111.944 13.576 111.204 13.936 110.556C14.304 109.9 14.812 109.392 15.46 109.032C16.108 108.664 16.848 108.48 17.68 108.48C18.688 108.48 19.536 108.724 20.224 109.212C20.92 109.7 21.38 110.376 21.604 111.24H19.336ZM25.9326 117.096C25.2766 117.096 24.6846 116.956 24.1566 116.676C23.6366 116.396 23.2246 115.996 22.9206 115.476C22.6246 114.956 22.4766 114.348 22.4766 113.652C22.4766 112.964 22.6286 112.36 22.9326 111.84C23.2366 111.312 23.6526 110.908 24.1806 110.628C24.7086 110.348 25.3006 110.208 25.9566 110.208C26.6126 110.208 27.2046 110.348 27.7326 110.628C28.2606 110.908 28.6766 111.312 28.9806 111.84C29.2846 112.36 29.4366 112.964 29.4366 113.652C29.4366 114.34 29.2806 114.948 28.9686 115.476C28.6646 115.996 28.2446 116.396 27.7086 116.676C27.1806 116.956 26.5886 117.096 25.9326 117.096ZM25.9326 115.32C26.3246 115.32 26.6566 115.176 26.9286 114.888C27.2086 114.6 27.3486 114.188 27.3486 113.652C27.3486 113.116 27.2126 112.704 26.9406 112.416C26.6766 112.128 26.3486 111.984 25.9566 111.984C25.5566 111.984 25.2246 112.128 24.9606 112.416C24.6966 112.696 24.5646 113.108 24.5646 113.652C24.5646 114.188 24.6926 114.6 24.9486 114.888C25.2126 115.176 25.5406 115.32 25.9326 115.32ZM33.6813 108.576C34.5693 108.576 35.3453 108.752 36.0093 109.104C36.6733 109.456 37.1853 109.952 37.5453 110.592C37.9133 111.224 38.0973 111.956 38.0973 112.788C38.0973 113.612 37.9133 114.344 37.5453 114.984C37.1853 115.624 36.6693 116.12 35.9973 116.472C35.3333 116.824 34.5613 117 33.6813 117H30.5253V108.576H33.6813ZM33.5493 115.224C34.3253 115.224 34.9293 115.012 35.3613 114.588C35.7933 114.164 36.0093 113.564 36.0093 112.788C36.0093 112.012 35.7933 111.408 35.3613 110.976C34.9293 110.544 34.3253 110.328 33.5493 110.328H32.5773V115.224H33.5493ZM40.276 109.608C39.916 109.608 39.62 109.504 39.388 109.296C39.164 109.08 39.052 108.816 39.052 108.504C39.052 108.184 39.164 107.92 39.388 107.712C39.62 107.496 39.916 107.388 40.276 107.388C40.628 107.388 40.916 107.496 41.14 107.712C41.372 107.92 41.488 108.184 41.488 108.504C41.488 108.816 41.372 109.08 41.14 109.296C40.916 109.504 40.628 109.608 40.276 109.608ZM41.296 110.304V117H39.244V110.304H41.296ZM45.5071 117.096C44.9231 117.096 44.4031 116.996 43.9471 116.796C43.4911 116.596 43.1311 116.324 42.8671 115.98C42.6031 115.628 42.4551 115.236 42.4231 114.804H44.4511C44.4751 115.036 44.5831 115.224 44.7751 115.368C44.9671 115.512 45.2031 115.584 45.4831 115.584C45.7391 115.584 45.9351 115.536 46.0711 115.44C46.2151 115.336 46.2871 115.204 46.2871 115.044C46.2871 114.852 46.1871 114.712 45.9871 114.624C45.7871 114.528 45.4631 114.424 45.0151 114.312C44.5351 114.2 44.1351 114.084 43.8151 113.964C43.4951 113.836 43.2191 113.64 42.9871 113.376C42.7551 113.104 42.6391 112.74 42.6391 112.284C42.6391 111.9 42.7431 111.552 42.9511 111.24C43.1671 110.92 43.4791 110.668 43.8871 110.484C44.3031 110.3 44.7951 110.208 45.3631 110.208C46.2031 110.208 46.8631 110.416 47.3431 110.832C47.8311 111.248 48.1111 111.8 48.1831 112.488H46.2871C46.2551 112.256 46.1511 112.072 45.9751 111.936C45.8071 111.8 45.5831 111.732 45.3031 111.732C45.0631 111.732 44.8791 111.78 44.7511 111.876C44.6231 111.964 44.5591 112.088 44.5591 112.248C44.5591 112.44 44.6591 112.584 44.8591 112.68C45.0671 112.776 45.3871 112.872 45.8191 112.968C46.3151 113.096 46.7191 113.224 47.0311 113.352C47.3431 113.472 47.6151 113.672 47.8471 113.952C48.0871 114.224 48.2111 114.592 48.2191 115.056C48.2191 115.448 48.1071 115.8 47.8831 116.112C47.6671 116.416 47.3511 116.656 46.9351 116.832C46.5271 117.008 46.0511 117.096 45.5071 117.096ZM49.0665 113.652C49.0665 112.956 49.2065 112.348 49.4865 111.828C49.7745 111.308 50.1705 110.908 50.6745 110.628C51.1865 110.348 51.7705 110.208 52.4265 110.208C53.2665 110.208 53.9665 110.428 54.5265 110.868C55.0945 111.308 55.4665 111.928 55.6425 112.728H53.4585C53.2745 112.216 52.9185 111.96 52.3905 111.96C52.0145 111.96 51.7145 112.108 51.4905 112.404C51.2665 112.692 51.1545 113.108 51.1545 113.652C51.1545 114.196 51.2665 114.616 51.4905 114.912C51.7145 115.2 52.0145 115.344 52.3905 115.344C52.9185 115.344 53.2745 115.088 53.4585 114.576H55.6425C55.4665 115.36 55.0945 115.976 54.5265 116.424C53.9585 116.872 53.2585 117.096 52.4265 117.096C51.7705 117.096 51.1865 116.956 50.6745 116.676C50.1705 116.396 49.7745 115.996 49.4865 115.476C49.2065 114.956 49.0665 114.348 49.0665 113.652ZM59.7881 117.096C59.1321 117.096 58.5401 116.956 58.0121 116.676C57.4921 116.396 57.0801 115.996 56.7761 115.476C56.4801 114.956 56.3321 114.348 56.3321 113.652C56.3321 112.964 56.4841 112.36 56.7881 111.84C57.0921 111.312 57.5081 110.908 58.0361 110.628C58.5641 110.348 59.1561 110.208 59.8121 110.208C60.4681 110.208 61.0601 110.348 61.5881 110.628C62.1161 110.908 62.5321 111.312 62.8361 111.84C63.1401 112.36 63.2921 112.964 63.2921 113.652C63.2921 114.34 63.1361 114.948 62.8241 115.476C62.5201 115.996 62.1001 116.396 61.5641 116.676C61.0361 116.956 60.4441 117.096 59.7881 117.096ZM59.7881 115.32C60.1801 115.32 60.5121 115.176 60.7841 114.888C61.0641 114.6 61.2041 114.188 61.2041 113.652C61.2041 113.116 61.0681 112.704 60.7961 112.416C60.5321 112.128 60.2041 111.984 59.8121 111.984C59.4121 111.984 59.0801 112.128 58.8161 112.416C58.5521 112.696 58.4201 113.108 58.4201 113.652C58.4201 114.188 58.5481 114.6 58.8041 114.888C59.0681 115.176 59.3961 115.32 59.7881 115.32ZM67.3927 115.08L68.8447 110.304H71.0287L68.6527 117H66.1207L63.7447 110.304H65.9407L67.3927 115.08ZM78.2044 113.544C78.2044 113.736 78.1924 113.936 78.1684 114.144H73.5244C73.5564 114.56 73.6884 114.88 73.9204 115.104C74.1604 115.32 74.4524 115.428 74.7964 115.428C75.3084 115.428 75.6644 115.212 75.8644 114.78H78.0484C77.9364 115.22 77.7324 115.616 77.4364 115.968C77.1484 116.32 76.7844 116.596 76.3444 116.796C75.9044 116.996 75.4124 117.096 74.8684 117.096C74.2124 117.096 73.6284 116.956 73.1164 116.676C72.6044 116.396 72.2044 115.996 71.9164 115.476C71.6284 114.956 71.4844 114.348 71.4844 113.652C71.4844 112.956 71.6244 112.348 71.9044 111.828C72.1924 111.308 72.5924 110.908 73.1044 110.628C73.6164 110.348 74.2044 110.208 74.8684 110.208C75.5164 110.208 76.0924 110.344 76.5964 110.616C77.1004 110.888 77.4924 111.276 77.7724 111.78C78.0604 112.284 78.2044 112.872 78.2044 113.544ZM76.1044 113.004C76.1044 112.652 75.9844 112.372 75.7444 112.164C75.5044 111.956 75.2044 111.852 74.8444 111.852C74.5004 111.852 74.2084 111.952 73.9684 112.152C73.7364 112.352 73.5924 112.636 73.5364 113.004H76.1044ZM81.339 111.42C81.579 111.052 81.879 110.764 82.239 110.556C82.599 110.34 82.999 110.232 83.439 110.232V112.404H82.875C82.363 112.404 81.979 112.516 81.723 112.74C81.467 112.956 81.339 113.34 81.339 113.892V117H79.287V110.304H81.339V111.42ZM92.2068 115.512H89.0628L88.5588 117H86.4108L89.4588 108.576H91.8348L94.8828 117H92.7108L92.2068 115.512ZM91.6788 113.928L90.6348 110.844L89.6028 113.928H91.6788ZM99.1704 112.008H98.0664V117H96.0144V112.008H95.2704V110.304H96.0144V110.112C96.0144 109.288 96.2504 108.664 96.7224 108.24C97.1944 107.808 97.8864 107.592 98.7984 107.592C98.9504 107.592 99.0624 107.596 99.1344 107.604V109.344C98.7424 109.32 98.4664 109.376 98.3064 109.512C98.1464 109.648 98.0664 109.892 98.0664 110.244V110.304H99.1704V112.008ZM102.187 111.42C102.427 111.052 102.727 110.764 103.087 110.556C103.447 110.34 103.847 110.232 104.287 110.232V112.404H103.723C103.211 112.404 102.827 112.516 102.571 112.74C102.315 112.956 102.187 113.34 102.187 113.892V117H100.135V110.304H102.187V111.42ZM106.299 109.608C105.939 109.608 105.643 109.504 105.411 109.296C105.187 109.08 105.075 108.816 105.075 108.504C105.075 108.184 105.187 107.92 105.411 107.712C105.643 107.496 105.939 107.388 106.299 107.388C106.651 107.388 106.939 107.496 107.163 107.712C107.395 107.92 107.511 108.184 107.511 108.504C107.511 108.816 107.395 109.08 107.163 109.296C106.939 109.504 106.651 109.608 106.299 109.608ZM107.319 110.304V117H105.267V110.304H107.319ZM108.399 113.652C108.399 112.956 108.539 112.348 108.819 111.828C109.107 111.308 109.503 110.908 110.007 110.628C110.519 110.348 111.103 110.208 111.759 110.208C112.599 110.208 113.299 110.428 113.859 110.868C114.427 111.308 114.799 111.928 114.975 112.728H112.791C112.607 112.216 112.251 111.96 111.723 111.96C111.347 111.96 111.047 112.108 110.823 112.404C110.599 112.692 110.487 113.108 110.487 113.652C110.487 114.196 110.599 114.616 110.823 114.912C111.047 115.2 111.347 115.344 111.723 115.344C112.251 115.344 112.607 115.088 112.791 114.576H114.975C114.799 115.36 114.427 115.976 113.859 116.424C113.291 116.872 112.591 117.096 111.759 117.096C111.103 117.096 110.519 116.956 110.007 116.676C109.503 116.396 109.107 115.996 108.819 115.476C108.539 114.956 108.399 114.348 108.399 113.652ZM115.664 113.64C115.664 112.952 115.792 112.348 116.048 111.828C116.312 111.308 116.668 110.908 117.116 110.628C117.564 110.348 118.064 110.208 118.616 110.208C119.088 110.208 119.5 110.304 119.852 110.496C120.212 110.688 120.488 110.94 120.68 111.252V110.304H122.732V117H120.68V116.052C120.48 116.364 120.2 116.616 119.84 116.808C119.488 117 119.076 117.096 118.604 117.096C118.06 117.096 117.564 116.956 117.116 116.676C116.668 116.388 116.312 115.984 116.048 115.464C115.792 114.936 115.664 114.328 115.664 113.64ZM120.68 113.652C120.68 113.14 120.536 112.736 120.248 112.44C119.968 112.144 119.624 111.996 119.216 111.996C118.808 111.996 118.46 112.144 118.172 112.44C117.892 112.728 117.752 113.128 117.752 113.64C117.752 114.152 117.892 114.56 118.172 114.864C118.46 115.16 118.808 115.308 119.216 115.308C119.624 115.308 119.968 115.16 120.248 114.864C120.536 114.568 120.68 114.164 120.68 113.652Z" fill="#367E1C"/>
</svg>
